<svg xmlns="http://www.w3.org/2000/svg" width="86" height="86" viewBox="0 0 86 86"><path d="M.952 65.75c.514-22.946 1.652-27.74 8.478-35.714 3.193-3.73 3.649-4.888 3.416-8.68-.328-5.326 2.436-10.3 7.717-13.89C22.56 6.11 24.466 5 24.8 5c.333 0 1.845 2.533 3.361 5.628l2.756 5.628 5.156-.62c2.836-.34 8.87-.623 13.407-.627L57.73 15V8.622c0-7.44 1.275-9.16 6.019-8.118 1.95.429 3.43 1.546 3.987 3.012.496 1.305 1.888 2.475 3.162 2.657 1.68.242 2.68 1.494 3.822 4.786 1.046 3.02 2.248 4.634 3.72 5 1.196.298 3.516 2.546 5.157 4.996C87.858 27.32 86.73 29 78.194 29h-6.465v23.949l2.9 1.5c2.809 1.452 10.1 9.146 10.1 10.657 0 1.537-10.821 5.967-16.06 6.575-4.361.507-6.29 1.376-9.724 4.381-9.43 8.253-16.014 9.882-40.081 9.914L.499 86zm48.603 12.32c6.97-3.78 11.862-8.86 15.34-15.934 2.017-4.101 2.323-6.453 2.645-20.386L67.905 26h14.732l-2.204-3.458c-1.212-1.901-2.68-3.476-3.263-3.5-2.271-.09-4.643-2.795-5.31-6.054-.516-2.524-1.341-3.562-3.165-3.983-1.356-.314-2.91-1.568-3.453-2.788C64.699 4.997 63.462 4 62.492 4c-1.525 0-1.763.998-1.763 7.393v7.393l-15.25.4c-14.117.37-15.668.602-20.877 3.121C17.981 25.51 10.48 33.133 7.408 39.783 5.461 43.997 5.194 46.507 4.9 63.327l-.33 18.828 19.33-.328 19.329-.327zm-11.55-9.11c-2.388-10.053-10.99-18.44-20.175-19.673-3.181-.427-4.101-.98-4.101-2.464 0-1.662.493-1.827 3.75-1.254 12.704 2.235 22.688 12.266 24.026 24.14.715 6.34-1.952 5.769-3.5-.749zm-26.938-2.025c-3.002-1.118-3.858-4.493-1.898-7.484 1.969-3.005 5.579-3.193 8.087-.42 3.591 3.967-1.003 9.835-6.19 7.904zm3.471-4.685c-.405-2.108-2.18-1.975-2.633.197-.188.906.363 1.553 1.324 1.553 1.03 0 1.52-.655 1.31-1.75zm29.719 2.047c-1.977-10.538-9.543-18.46-19.844-20.78-6.476-1.46-7.352-4.192-1.184-3.694 11.627.939 24.457 13.998 24.49 24.927.014 4.599-2.578 4.26-3.462-.453zM49.456 58c-1.26-9.394-9.419-17.892-19.301-20.104-3.559-.796-5.426-1.72-5.426-2.685 0-1.141.962-1.363 4.29-.988 11.876 1.34 22.032 11.394 24.269 24.027.583 3.294.423 3.75-1.316 3.75-1.554 0-2.095-.861-2.516-4zm6.851-2.167c-.232-.733-.693-2.969-1.024-4.968-1.192-7.2-10.374-16.993-17.25-18.395-1.267-.258-3.43-.704-4.804-.99-3.782-.784-3.2-3.482.75-3.47 7.763.023 19.218 8.26 22.808 16.4 2.264 5.135 2.901 11.718 1.192 12.318-.687.241-1.44-.162-1.672-.895zM75.48 66.348c2.337-.832 4.25-1.792 4.25-2.133 0-.34-1.438-2.104-3.196-3.917-3.364-3.47-6.804-4.36-6.804-1.758 0 .847-.9 3.304-2 5.46s-2 4.172-2 4.48c0 .731 4.427-.237 9.75-2.132zm-51-47.784c2.522-.783 2.793-2.279 1.09-6.017-1.396-3.063-1.849-3.115-5.07-.58-2.952 2.321-5.25 7.34-4.388 9.586.541 1.41.918 1.372 3.364-.35 1.514-1.068 3.766-2.255 5.004-2.64z"/></svg>