<svg xmlns="http://www.w3.org/2000/svg" width="101" height="85" viewBox="0 0 101 85"><path d="M5.747 83.572c-.99-1.603 1.616-3.004 4.82-2.59 3.295.426 3.318.31.683-3.392-2.687-3.773-2.176-7.657 1.352-10.28l2.785-2.07 2.454 2.972c3.659 4.432 4.104 7.174 1.597 9.842-1.167 1.242-2.122 2.455-2.122 2.694 0 .24 3.6.436 8 .436 4.682 0 7.99-.415 7.978-1-.012-.55-.902-2.125-1.978-3.5-2.707-3.46-2.49-5.16 1.09-8.563l3.09-2.937 2.91 3.462c3.44 4.092 3.826 8.45.91 10.27-1.1.687-2 1.478-2 1.758-.001.365 14.277.4 16.72.042.12-.018-.892-1.67-2.25-3.672-1.358-2.001-2.47-3.992-2.47-4.423 0-1.273 5.085-6.937 6.229-6.937 1.218 0 3.151 2.29 5.384 6.38 1.473 2.696 1.44 3.057-.52 5.709-2.673 3.615-2.663 3.648.916 3.123 3.088-.453 6.4 1.319 5.421 2.901-.84 1.359-60.155 1.14-60.999-.225zm11.57-8.697c0-.995-.587-2.61-1.303-3.59-1.16-1.585-1.443-1.613-2.57-.255-.952 1.147-.992 2.039-.162 3.59 1.362 2.545 4.034 2.714 4.034.255zm20.486.83c.874-1.414-1.297-5.021-3.022-5.021-1.766 0-1.938 3.126-.265 4.8 1.456 1.456 2.482 1.524 3.287.22zm20.156-.534c.604-1.573-1.213-4.487-2.797-4.487-1.574 0-2.123 2.961-.835 4.513 1.578 1.901 2.897 1.892 3.632-.026zM12.65 62.022c-3.595-.756-7.154-4.835-7.836-8.98-.35-2.122-1.545-5.566-2.656-7.654-3.688-6.93-4.8-6.704 33.16-6.704 29.355 0 34.141.207 34.638 1.5.473 1.232 3.024 1.5 14.313 1.5 12.04 0 13.943.226 15.393 1.829 2.079 2.296 2.107 4.576.084 6.6-1.296 1.295-4.335 1.57-17.3 1.57H66.719l-1.231 3.406c-2.411 6.666-4.037 7.077-28.67 7.242-12.1.081-22.976-.058-24.168-.309zm47.56-5.088c1.261-1.045 2.47-3.7 2.997-6.587.487-2.66 1.385-5.338 1.997-5.95.612-.612 1.113-1.473 1.113-1.913 0-.44-13.943-.8-30.984-.8H4.35l1.669 3.5 1.669 3.5H16c6.725 0 8.315.287 8.315 1.5 0 1.208-1.555 1.5-8 1.5-12.37 0-9.594 1.894 3.25 2.217 13.851.348 14.738 2.163 1.255 2.57-5.234.157-9.505.718-9.505 1.25 0 .59 9.05.963 23.39.963 20.803 0 23.622-.194 25.502-1.75zm37.432-8.908c.362-.362.157-1.262-.456-2-.829-.999-4.487-1.342-14.291-1.342-12.57 0-15.578.618-15.578 3.2 0 .954 29.375 1.092 30.325.142zM18.39 30.273c-.645-.776-1.447-3.105-1.783-5.175-.5-3.079.004-4.905 2.766-10.022l3.377-6.257-1.771-3.714c-2.256-4.73-.774-6.648 2.207-2.858 2.89 3.673 2.78 9.2-.27 13.694-3.51 5.171-3.943 7.35-2.17 10.904.863 1.73 1.57 3.527 1.57 3.992 0 1.357-2.649.976-3.927-.564zm21 0c-.645-.776-1.447-3.105-1.783-5.175-.5-3.079.005-4.905 2.766-10.022l3.377-6.257-1.771-3.714c-2.256-4.73-.774-6.648 2.207-2.858 2.923 3.716 2.78 9.198-.358 13.823-3.47 5.112-4.05 8.145-2.123 11.086.886 1.352 1.61 2.923 1.61 3.493 0 1.51-2.564 1.265-3.926-.376z"/></svg>