<svg width="82" height="84" viewBox="0 0 101 85"><path d="M51.15 82.128c-1.158-2.164-.305-5.781 2.794-11.856l2.128-4.172-5.745-.3c-5.4-.282-5.763-.46-6.055-2.982-.359-3.106 1.251-4.244 7.457-5.272 3.705-.613 4.196-1.025 4.613-3.86.272-1.855-.147-4.11-1.007-5.422-.81-1.237-1.21-2.932-.89-3.768.321-.835.08-2.624-.535-3.974l-1.118-2.455-2.932 2.467C48.166 41.959 45.66 43 43.922 43c-3.916 0-3.272-1.928 1.13-3.383 1.859-.614 3.545-1.622 3.746-2.24.557-1.707-3.367-2.334-6.712-1.072-2.238.845-3.268.832-4.153-.053-.902-.903-.556-1.413 1.486-2.19 3.35-1.273 3.337-2.06-.087-5.248-2.087-1.943-4.195-2.698-8.75-3.131C22.252 24.89 7.738 17.627 7.236 14c-.19-1.375-.978-2.86-1.75-3.3-2-1.139-4.649-6.618-4.008-8.29C2.291.294 3.86.712 4.63 3.25 5.49 6.088 9.022 10 10.722 10c.71 0 5.436-2.032 10.502-4.516C32.516-.053 35.867-.64 44.68 1.367c3.797.865 10.215 2.085 14.262 2.712 8.224 1.273 11.141 3.297 11.141 7.73 0 2.164 1.265 3.902 5.5 7.558 6.047 5.22 7.132 8.846 3.604 12.04-1.857 1.68-1.848 1.8.396 5.904 3.706 6.776 3.837 8.136 1.098 11.39-1.601 1.904-2.576 4.458-2.781 7.29-.258 3.548-.833 4.653-3.085 5.935C71.908 63.578 65.952 70.4 60.778 78c-1.685 2.475-3.544 4.831-4.13 5.235-1.914 1.32-4.475.804-5.498-1.107zM63.332 69.54c3.163-4.035 5.75-7.57 5.75-7.855 0-1.53-10.34-2.591-15.25-1.566C46.28 61.695 45.637 63 52.414 63c7.223 0 7.896 1.347 4.32 8.639-1.459 2.973-2.632 6.408-2.607 7.634l.044 2.227 1.706-2.311c.938-1.272 4.293-5.614 7.455-9.65zM75.082 55v-4h-6.8c-6.611 0-9.2 1.011-9.2 3.593 0 1.176 9.38 4.115 13.75 4.308 1.975.087 2.25-.39 2.25-3.9zm3.419-8.316c1.713-1.253 1.673-1.568-.826-6.5C76.23 37.333 74.817 35 74.534 35c-.283 0-3.533 2.025-7.223 4.5-3.689 2.475-7.5 4.5-8.468 4.5-1.733 0-2.399 2.03-1.094 3.334 1.278 1.278 18.868.727 20.752-.65zm-9.718-11.816c6.02-3.97 9.3-6.767 9.3-7.933 0-1.577-8.69-9.846-9.276-8.826-.124.215-1.308 2.545-2.632 5.176-2.222 4.417-7.347 9.967-10.027 10.86-1.458.486.616 6.855 2.232 6.855.607 0 5.288-2.759 10.403-6.132zm-16.629-4.003c.9-1.68 1.323-1.844 1.988-.768 2.4 3.884 13.371-12.07 12.74-18.528-.287-2.929-.586-3.117-6.8-4.27-3.575-.663-7.647-1.226-9.05-1.252-2.331-.043-2.513.252-2.139 3.46.691 5.922-.675 10.265-4.352 13.836-3.344 3.248-3.394 3.407-1.583 5.045 1.766 1.599 1.9 1.58 2.403-.348.956-3.653 3.04-2.392 2.415 1.46-.482 2.973-.281 3.5 1.334 3.5 1.046 0 2.416-.96 3.044-2.135zM41.102 21.49c3.784-1.956 4.98-4.323 4.98-9.851 0-3.663-.487-4.876-2.635-6.566-4-3.147-8.681-2.62-18.599 2.093C15.863 11.436 14.183 13 18.582 13c1.556 0 2.5.567 2.5 1.5 0 1.743-2.718 1.938-6.573.473-5.234-1.99-3.557-.067 2.722 3.123 9.975 5.067 18.337 6.256 23.871 3.394zM32.444 10.5c-.792-2.064.282-4.5 1.984-4.5 2.047 0 3.789 2.486 3.064 4.374-.784 2.043-4.28 2.13-5.048.126zm132.48 69.59c-1.159-2.163-.306-5.78 2.793-11.856l2.128-4.171-5.745-.3c-5.4-.282-5.763-.46-6.055-2.983-.359-3.106 1.251-4.244 7.457-5.271 3.705-.614 4.197-1.025 4.613-3.861.272-1.855-.147-4.109-1.007-5.422-.81-1.236-1.21-2.931-.89-3.767.321-.836.08-2.624-.535-3.974l-1.118-2.455-2.932 2.466c-1.694 1.426-4.2 2.467-5.938 2.467-3.916 0-3.272-1.929 1.13-3.383 1.859-.614 3.545-1.622 3.746-2.24.557-1.708-3.367-2.335-6.712-1.072-2.238.844-3.268.831-4.153-.054-.902-.902-.556-1.413 1.486-2.19 3.35-1.273 3.337-2.06-.087-5.247-2.087-1.944-4.195-2.698-8.75-3.132-8.329-.792-22.844-8.055-23.346-11.682-.19-1.375-.978-2.86-1.75-3.3-2-1.139-4.649-6.619-4.008-8.29.813-2.117 2.382-1.698 3.152.84.86 2.838 4.392 6.75 6.092 6.75.71 0 5.436-2.032 10.502-4.516C146.29-2.09 149.64-2.68 158.452-.671c3.797.865 10.215 2.086 14.262 2.712 8.224 1.273 11.141 3.298 11.141 7.731 0 2.163 1.266 3.902 5.5 7.558 6.047 5.22 7.132 8.846 3.604 12.039-1.856 1.68-1.848 1.8.396 5.905 3.706 6.776 3.837 8.136 1.098 11.39-1.601 1.903-2.576 4.457-2.781 7.29-.258 3.547-.833 4.653-3.085 5.934-2.906 1.653-8.862 8.475-14.036 16.075-1.685 2.475-3.544 4.83-4.13 5.235-1.914 1.32-4.475.804-5.497-1.107zm12.181-12.588c3.163-4.035 5.75-7.57 5.75-7.855 0-1.53-10.34-2.592-15.25-1.567-7.553 1.577-8.195 2.883-1.418 2.883 7.223 0 7.896 1.346 4.32 8.638-1.459 2.974-2.632 6.409-2.607 7.634l.044 2.228 1.706-2.312c.938-1.271 4.293-5.614 7.455-9.649zm11.75-14.539v-4h-6.8c-6.611 0-9.2 1.01-9.2 3.592 0 1.177 9.38 4.116 13.75 4.309 1.975.087 2.25-.39 2.25-3.901zm3.419-8.317c1.713-1.253 1.673-1.568-.826-6.5-1.445-2.85-2.858-5.183-3.141-5.183-.283 0-3.533 2.025-7.222 4.5-3.69 2.475-7.5 4.5-8.47 4.5-1.732 0-2.398 2.029-1.093 3.333 1.279 1.279 18.868.728 20.752-.65zm-9.718-11.815c6.02-3.97 9.3-6.767 9.3-7.933 0-1.577-8.69-9.846-9.276-8.826-.124.215-1.308 2.544-2.632 5.176-2.222 4.416-7.347 9.966-10.027 10.86-1.458.486.616 6.855 2.232 6.855.607 0 5.288-2.76 10.403-6.132zm-16.628-4.003c.899-1.68 1.322-1.844 1.987-.769 2.4 3.884 13.371-12.07 12.74-18.527-.287-2.93-.586-3.117-6.8-4.27-3.575-.663-7.647-1.227-9.049-1.252-2.332-.043-2.514.252-2.14 3.46.692 5.921-.674 10.264-4.352 13.836-3.344 3.247-3.393 3.406-1.583 5.045 1.766 1.598 1.9 1.579 2.404-.348.955-3.653 3.04-2.393 2.414 1.46-.482 2.972-.281 3.5 1.334 3.5 1.046 0 2.416-.96 3.045-2.135zm-11.053-9.375c3.784-1.957 4.98-4.324 4.98-9.852 0-3.663-.487-4.876-2.635-6.565-4-3.147-8.681-2.62-18.599 2.093-8.984 4.27-10.665 5.834-6.266 5.834 1.556 0 2.5.567 2.5 1.5 0 1.743-2.718 1.938-6.573.472-5.233-1.99-3.557-.066 2.722 3.123 9.975 5.067 18.337 6.256 23.871 3.395zm-8.658-10.99c-.792-2.064.282-4.5 1.984-4.5 2.047 0 3.789 2.486 3.065 4.373-.784 2.043-4.28 2.131-5.05.127z"/></svg>